<svg width="20" height="23" viewBox="0 0 20 23" version="1.1" xmlns="http://www.w3.org/2000/svg" xmlns:xlink="http://www.w3.org/1999/xlink">
    <g id="Canvas" transform="translate(-2499 -333)">
        <g id="Group">
            <g id="Group">
                <g id="Shape">
                    <use xlink:href="#path0_fill" transform="translate(2505.39 339.579)" fill="#7D7D7D"/>
                </g>
                <g id="Shape">
                    <use xlink:href="#path1_fill" transform="translate(2508.43 339.579)" fill="#7D7D7D"/>
                </g>
                <g id="Shape">
                    <use xlink:href="#path0_fill" transform="translate(2511.36 339.579)" fill="#7D7D7D"/>
                </g>
                <g id="Shape">
                    <use xlink:href="#path2_fill" transform="translate(2499.04 333.089)" fill="#7D7D7D"/>
                </g>
            </g>
        </g>
    </g>
    <defs>
        <path id="path0_fill" d="M 0.592857 0C 0.265357 0 0 0.263787 0 0.589349L 0 12.6667C 0 12.9923 0.265357 13.2561 0.592857 13.2561C 0.920357 13.2561 1.18571 12.9923 1.18571 12.6667L 1.18571 0.589349C 1.18571 0.263787 0.920357 0 0.592857 0Z"/>
        <path id="path1_fill" d="M 0.592857 0C 0.265714 0 0 0.263787 0 0.589349L 0 12.6667C 0 12.9923 0.265714 13.2561 0.592857 13.2561C 0.920357 13.2561 1.18607 12.9923 1.18607 12.6667L 1.18607 0.589349C 1.18607 0.263787 0.920357 0 0.592857 0Z"/>
        <path id="path2_fill" fill-rule="evenodd" d="M 19.2454 2.99362L 15.0542 2.99362L 15.0542 0L 4.98364 0L 4.98364 2.99362L 0.535645 2.99362C 0.239746 2.99362 0 3.23184 0 3.52615C 0 3.82047 0.239746 4.05869 0.535645 4.05869L 1.9082 4.05869L 3.49243 20.7785C 3.50708 21.8485 4.38721 22.7144 5.4668 22.7144L 14.4929 22.7144C 15.5718 22.7144 16.4519 21.8489 16.4668 20.7799L 18.1296 4.05869L 19.2451 4.05869C 19.5408 4.05869 19.7808 3.82047 19.7808 3.52615C 19.7808 3.23184 19.541 2.99362 19.2454 2.99362ZM 6.05493 1.06509L 13.9829 1.06509L 13.9829 2.99362L 6.05493 2.99362L 6.05493 1.06509ZM 15.3958 20.7511L 15.3982 20.6989L 17.053 4.05835L 15.0544 4.05835L 4.98364 4.05835L 2.98438 4.05835L 4.56372 20.7511C 4.56372 21.246 4.96875 21.649 5.4668 21.649L 14.4929 21.649C 14.9907 21.649 15.3958 21.2464 15.3958 20.7511Z"/>
    </defs>
</svg>
